<?xml version="1.0" encoding="UTF-8" standalone="no"?>
<!DOCTYPE svg PUBLIC "-//W3C//DTD SVG 1.1//EN" "http://www.w3.org/Graphics/SVG/1.1/DTD/svg11.dtd">
<svg version="1.1" xmlns="http://www.w3.org/2000/svg" xmlns:xlink="http://www.w3.org/1999/xlink" preserveAspectRatio="xMidYMid meet" viewBox="0 0 640 640" width="1080" height="1080"><defs><path d="M407.54 198.62L640 198.62L640 429.1L407.54 429.1L407.54 198.62Z" id="b6XtgjSkIC"></path><path d="M518.97 312.16L535.69 298.13L540.27 293.99L548.29 285.6L553.59 279.81L559.82 272.2L564.57 266.17L568.08 261.17L571.28 255.56L574.46 248.03L576.44 241.16L577.14 235.69L576.99 231.28L576.37 227.79L575.49 225.03L573.74 221.42L571.72 218.55L568.53 216.14L563.96 214.17L559 212.35L554.34 211.32L547.92 210.89L539.67 211.62L533.43 213.3L528.3 215.29L523.43 218.44L519.1 222.03L514.4 227.5L510.28 234.93L507.01 243.4L505.28 251.63L504.97 260.96L505.43 270.17L507.48 280.68L509.81 290.27L518.97 312.16Z" id="d3BhPn7PKh"></path><linearGradient id="gradientfaXCBKkbl" gradientUnits="userSpaceOnUse" x1="452.98" y1="253.85" x2="531.32" y2="348.51"><stop style="stop-color: #ff6347;stop-opacity: 1" offset="0%"></stop><stop style="stop-color: #d91a1a;stop-opacity: 1" offset="100%"></stop></linearGradient><path d="M518.97 312.16L535.69 298.13L540.27 293.99L548.29 285.6L553.59 279.81L559.82 272.2L564.57 266.17L568.08 261.17L571.28 255.56L574.46 248.03L576.44 241.16L577.14 235.69L576.99 231.28L576.37 227.79L575.49 225.03L573.74 221.42L571.72 218.55L568.53 216.14L563.96 214.17L559 212.35L554.34 211.32L547.92 210.89L539.67 211.62L533.43 213.3L528.3 215.29L523.43 218.44L519.1 222.03L514.4 227.5L510.28 234.93L507.01 243.4L505.28 251.63L504.97 260.96L505.43 270.17L507.48 280.68L509.81 290.27L518.97 312.16Z" id="d2cxWkSWWZ"></path><path d="M518.08 316.3L501.35 330.33L496.77 334.47L488.76 342.86L483.46 348.65L477.22 356.26L472.47 362.29L468.96 367.3L465.77 372.9L462.58 380.43L460.6 387.3L459.9 392.77L460.05 397.18L460.67 400.68L461.55 403.43L463.31 407.04L465.32 409.91L468.51 412.32L473.08 414.29L478.04 416.11L482.7 417.14L489.13 417.57L497.37 416.84L503.62 415.16L508.75 413.17L513.61 410.02L517.94 406.43L522.64 400.96L526.76 393.53L530.03 385.06L531.76 376.83L532.07 367.5L531.61 358.29L529.56 347.78L527.23 338.19L518.08 316.3Z" id="a1RzilJbIa"></path><linearGradient id="gradientaqvtz8TMm" gradientUnits="userSpaceOnUse" x1="584.06" y1="374.61" x2="505.72" y2="279.95"><stop style="stop-color: #ff6347;stop-opacity: 1" offset="0%"></stop><stop style="stop-color: #d91a1a;stop-opacity: 1" offset="100%"></stop></linearGradient><path d="M518.08 316.3L501.35 330.33L496.77 334.47L488.76 342.86L483.46 348.65L477.22 356.26L472.47 362.29L468.96 367.3L465.77 372.9L462.58 380.43L460.6 387.3L459.9 392.77L460.05 397.18L460.67 400.68L461.55 403.43L463.31 407.04L465.32 409.91L468.51 412.32L473.08 414.29L478.04 416.11L482.7 417.14L489.13 417.57L497.37 416.84L503.62 415.16L508.75 413.17L513.61 410.02L517.94 406.43L522.64 400.96L526.76 393.53L530.03 385.06L531.76 376.83L532.07 367.5L531.61 358.29L529.56 347.78L527.23 338.19L518.08 316.3Z" id="ctRyyr8G"></path><path d="M516.52 313.21L502.52 296.38L498.39 291.77L490.02 283.7L484.25 278.37L476.66 272.1L470.65 267.31L465.66 263.77L460.07 260.55L452.57 257.34L445.72 255.34L440.28 254.62L435.89 254.77L432.41 255.39L429.66 256.26L426.08 258.02L423.22 260.03L420.83 263.24L418.88 267.82L417.07 272.8L416.06 277.48L415.64 283.93L416.38 292.22L418.07 298.49L420.06 303.65L423.21 308.54L426.79 312.9L432.24 317.63L439.65 321.78L448.08 325.08L456.29 326.84L465.57 327.17L474.74 326.72L485.2 324.68L494.74 322.36L516.52 313.21Z" id="a26prbpeU"></path><linearGradient id="gradientaoTiG9QJK" gradientUnits="userSpaceOnUse" x1="458.17" y1="378.98" x2="553.05" y2="300.9"><stop style="stop-color: #ff6347;stop-opacity: 1" offset="0%"></stop><stop style="stop-color: #d91a1a;stop-opacity: 1" offset="100%"></stop></linearGradient><path d="M516.52 313.21L502.52 296.38L498.39 291.77L490.02 283.7L484.25 278.37L476.66 272.1L470.65 267.31L465.66 263.77L460.07 260.55L452.57 257.34L445.72 255.34L440.28 254.62L435.89 254.77L432.41 255.39L429.66 256.26L426.08 258.02L423.22 260.03L420.83 263.24L418.88 267.82L417.07 272.8L416.06 277.48L415.64 283.93L416.38 292.22L418.07 298.49L420.06 303.65L423.21 308.54L426.79 312.9L432.24 317.63L439.65 321.78L448.08 325.08L456.29 326.84L465.57 327.17L474.74 326.72L485.2 324.68L494.74 322.36L516.52 313.21Z" id="ddFQxb06n"></path><path d="M521.15 314.48L535.15 331.31L539.28 335.91L547.65 343.98L553.42 349.31L561.01 355.58L567.02 360.37L572.01 363.91L577.6 367.12L585.09 370.33L591.94 372.34L597.39 373.06L601.77 372.91L605.26 372.29L608 371.41L611.59 369.66L614.44 367.65L616.83 364.44L618.79 359.86L620.59 354.88L621.6 350.2L622.02 343.75L621.28 335.47L619.59 329.19L617.6 324.03L614.45 319.14L610.87 314.79L605.42 310.06L598.02 305.9L589.58 302.6L581.38 300.85L572.1 300.52L562.93 300.97L552.46 303.01L542.93 305.33L521.15 314.48Z" id="i1WMqmlcr"></path><linearGradient id="gradienta4dXyGtzQe" gradientUnits="userSpaceOnUse" x1="579.49" y1="248.71" x2="484.63" y2="326.78"><stop style="stop-color: #ff6347;stop-opacity: 1" offset="0%"></stop><stop style="stop-color: #d91a1a;stop-opacity: 1" offset="100%"></stop></linearGradient><path d="M521.15 314.48L535.15 331.31L539.28 335.91L547.65 343.98L553.42 349.31L561.01 355.58L567.02 360.37L572.01 363.91L577.6 367.12L585.09 370.33L591.94 372.34L597.39 373.06L601.77 372.91L605.26 372.29L608 371.41L611.59 369.66L614.44 367.65L616.83 364.44L618.79 359.86L620.59 354.88L621.6 350.2L622.02 343.75L621.28 335.47L619.59 329.19L617.6 324.03L614.45 319.14L610.87 314.79L605.42 310.06L598.02 305.9L589.58 302.6L581.38 300.85L572.1 300.52L562.93 300.97L552.46 303.01L542.93 305.33L521.15 314.48Z" id="b1gxZ7zoXK"></path></defs><g><g><g><use xlink:href="#b6XtgjSkIC" opacity="1" fill="#000000" fill-opacity="0"></use><g><use xlink:href="#b6XtgjSkIC" opacity="1" fill-opacity="0" stroke="#000000" stroke-width="1" stroke-opacity="0"></use></g></g><g><use xlink:href="#d3BhPn7PKh" opacity="1" fill="url(#gradientfaXCBKkbl)"></use><g><use xlink:href="#d3BhPn7PKh" opacity="1" fill-opacity="0" stroke="#000000" stroke-width="1" stroke-opacity="0"></use></g></g><g><use xlink:href="#d2cxWkSWWZ" opacity="1" fill="#000000" fill-opacity="0"></use><g><use xlink:href="#d2cxWkSWWZ" opacity="1" fill-opacity="0" stroke="#ffffff" stroke-width="1" stroke-opacity="1"></use></g></g><g><use xlink:href="#a1RzilJbIa" opacity="1" fill="url(#gradientaqvtz8TMm)"></use><g><use xlink:href="#a1RzilJbIa" opacity="1" fill-opacity="0" stroke="#000000" stroke-width="1" stroke-opacity="0"></use></g></g><g><use xlink:href="#ctRyyr8G" opacity="1" fill="#000000" fill-opacity="0"></use><g><use xlink:href="#ctRyyr8G" opacity="1" fill-opacity="0" stroke="#ffffff" stroke-width="1" stroke-opacity="1"></use></g></g><g><use xlink:href="#a26prbpeU" opacity="1" fill="url(#gradientaoTiG9QJK)"></use><g><use xlink:href="#a26prbpeU" opacity="1" fill-opacity="0" stroke="#000000" stroke-width="1" stroke-opacity="0"></use></g></g><g><use xlink:href="#ddFQxb06n" opacity="1" fill="#000000" fill-opacity="0"></use><g><use xlink:href="#ddFQxb06n" opacity="1" fill-opacity="0" stroke="#ffffff" stroke-width="1" stroke-opacity="1"></use></g></g><g><use xlink:href="#i1WMqmlcr" opacity="1" fill="url(#gradienta4dXyGtzQe)"></use><g><use xlink:href="#i1WMqmlcr" opacity="1" fill-opacity="0" stroke="#000000" stroke-width="1" stroke-opacity="0"></use></g></g><g><use xlink:href="#b1gxZ7zoXK" opacity="1" fill="#000000" fill-opacity="0"></use><g><use xlink:href="#b1gxZ7zoXK" opacity="1" fill-opacity="0" stroke="#ffffff" stroke-width="1" stroke-opacity="1"></use></g></g></g></g></svg>