<svg version="1.1" viewBox="0.0 0.0 548.0314960629921 207.8740157480315" fill="none" stroke="none" stroke-linecap="square" stroke-miterlimit="10" xmlns:xlink="http://www.w3.org/1999/xlink" xmlns="http://www.w3.org/2000/svg"><clipPath id="p.0"><path d="m0 0l548.0315 0l0 207.87401l-548.0315 0l0 -207.87401z" clip-rule="nonzero"/></clipPath><g clip-path="url(#p.0)"><path fill="#000000" fill-opacity="0.0" d="m0 0l548.0315 0l0 207.87401l-548.0315 0z" fill-rule="evenodd"/><defs><linearGradient id="p.1" gradientUnits="userSpaceOnUse" gradientTransform="matrix(-0.965455353278389 10.234649069371608 -10.234649069371608 -0.965455353278389 0.0 0.0)" spreadMethod="pad" x1="1.0364798701385" y1="-37.99727756998307" x2="8.273562412305292" y2="-45.23417454666125"><stop offset="0.0" stop-color="#ff6347"/><stop offset="1.0" stop-color="#d91a1a"/></linearGradient></defs><path fill="url(#p.1)" d="m444.38882 97.22611l14.324951 -12.019501l3.915924 -3.5445251l6.866272 -7.1827927l4.537964 -4.955475l5.336334 -6.514118l4.070404 -5.163971l3.0082397 -4.2884903l2.7336426 -4.802746l2.7240906 -6.4415474l1.6954956 -5.885586l0.604187 -4.6832943l-0.13287354 -3.774538l-0.5311279 -2.9959812l-0.75338745 -2.361721l-1.5003052 -3.0883656l-1.722229 -2.4575062l-2.7355957 -2.063161l-3.9129944 -1.6881733l-4.2499084 -1.5595055l-3.9878235 -0.8765011l-5.500641 -0.37097836l-7.061157 0.6226444l-5.3469543 1.4432096l-4.393341 1.7006168l-4.1646423 2.7014322l-3.7091064 3.0735817l-4.0229797 4.6792717l-3.5319824 6.361389l-2.8005066 7.251356l-1.4789734 7.05175l-0.26617432 7.9867325l0.39620972 7.8879395l1.7562256 9.002033l1.9953918 8.206322z" fill-rule="evenodd"/><path stroke="#ffffff" stroke-width="1.0" stroke-linejoin="round" stroke-linecap="butt" d="m444.38882 97.22611l14.324951 -12.019501l3.915924 -3.5445251l6.866272 -7.1827927l4.537964 -4.955475l5.336334 -6.514118l4.070404 -5.163971l3.0082397 -4.2884903l2.7336426 -4.802746l2.7240906 -6.4415474l1.6954956 -5.885586l0.604187 -4.6832943l-0.13287354 -3.774538l-0.5311279 -2.9959812l-0.75338745 -2.361721l-1.5003052 -3.0883656l-1.722229 -2.4575062l-2.7355957 -2.063161l-3.9129944 -1.6881733l-4.2499084 -1.5595055l-3.9878235 -0.8765011l-5.500641 -0.37097836l-7.061157 0.6226444l-5.3469543 1.4432096l-4.393341 1.7006168l-4.1646423 2.7014322l-3.7091064 3.0735817l-4.0229797 4.6792717l-3.5319824 6.361389l-2.8005066 7.251356l-1.4789734 7.05175l-0.26617432 7.9867325l0.39620972 7.8879395l1.7562256 9.002033l1.9953918 8.206322z" fill-rule="evenodd"/><defs><linearGradient id="p.2" gradientUnits="userSpaceOnUse" gradientTransform="matrix(0.9654553678227519 -10.234649223640394 10.234649223640394 0.9654553678227519 0.0 0.0)" spreadMethod="pad" x1="-10.025678461320094" y1="49.81198875434758" x2="-2.7885955919073253" y2="42.57509188675197"><stop offset="0.0" stop-color="#ff6347"/><stop offset="1.0" stop-color="#d91a1a"/></linearGradient></defs><path fill="url(#p.2)" d="m443.6282 100.76713l-14.324951 12.019501l-3.915924 3.5445251l-6.866272 7.1827927l-4.537964 4.955475l-5.336334 6.5141144l-4.070404 5.163971l-3.0082397 4.288498l-2.7336426 4.8027344l-2.7240906 6.441559l-1.6954956 5.8855743l-0.604187 4.683304l0.13287354 3.7745361l0.5311279 2.995987l0.75338745 2.3617096l1.5003052 3.0883636l1.722229 2.4575195l2.7355957 2.0631561l3.9129944 1.6881714l4.2499084 1.5595093l3.9878235 0.87649536l5.500641 0.37098694l7.061157 -0.62265015l5.3469543 -1.4432068l4.393341 -1.7006226l4.1646423 -2.7014313l3.7091064 -3.073578l4.022949 -4.6792755l3.532013 -6.361389l2.8005066 -7.251358l1.4789734 -7.0517426l0.26617432 -7.98674l-0.39620972 -7.8879395l-1.7562256 -9.002029l-1.9953918 -8.206322z" fill-rule="evenodd"/><path stroke="#ffffff" stroke-width="1.0" stroke-linejoin="round" stroke-linecap="butt" d="m443.6282 100.76713l-14.324951 12.019501l-3.915924 3.5445251l-6.866272 7.1827927l-4.537964 4.955475l-5.336334 6.5141144l-4.070404 5.163971l-3.0082397 4.288498l-2.7336426 4.8027344l-2.7240906 6.441559l-1.6954956 5.8855743l-0.604187 4.683304l0.13287354 3.7745361l0.5311279 2.995987l0.75338745 2.3617096l1.5003052 3.0883636l1.722229 2.4575195l2.7355957 2.0631561l3.9129944 1.6881714l4.2499084 1.5595093l3.9878235 0.87649536l5.500641 0.37098694l7.061157 -0.62265015l5.3469543 -1.4432068l4.393341 -1.7006226l4.1646423 -2.7014313l3.7091064 -3.073578l4.022949 -4.6792755l3.532013 -6.361389l2.8005066 -7.251358l1.4789734 -7.0517426l0.26617432 -7.98674l-0.39620972 -7.8879395l-1.7562256 -9.002029l-1.9953918 -8.206322z" fill-rule="evenodd"/><defs><linearGradient id="p.3" gradientUnits="userSpaceOnUse" gradientTransform="matrix(10.233548215092894 0.993621104134309 -0.993621104134309 10.233548215092894 0.0 0.0)" spreadMethod="pad" x1="39.4313542527914" y1="11.263402290305473" x2="46.66765620897411" y2="4.027281570639632"><stop offset="0.0" stop-color="#ff6347"/><stop offset="1.0" stop-color="#d91a1a"/></linearGradient></defs><path fill="url(#p.3)" d="m442.29837 98.119354l-11.994019 -14.411827l-3.5364075 -3.9401855l-7.1643066 -6.910637l-4.942322 -4.567711l-6.495636 -5.37265l-5.148987 -4.0984726l-4.27536 -3.0298882l-4.7867737 -2.7550583l-6.418335 -2.7486534l-5.862854 -1.7143936l-4.6637573 -0.61592484l-3.7575989 0.12617874l-2.9816895 0.5277176l-2.349823 0.75217056l-3.0718384 1.5010109l-2.4432983 1.7251358l-2.048767 2.7437706l-1.6731567 3.9271011l-1.5444031 4.2658043l-0.8648987 4.0038605l-0.35873413 5.524353l0.6335449 7.0937576l1.4471436 5.373497l1.7015991 4.416153l2.6975403 4.1883698l3.0671387 3.731514l4.6663513 4.0498962l6.340088 3.5599976l7.2247314 2.82695l7.023407 1.4991608l7.951935 0.2827835l7.8523254 -0.38272858l8.958832 -1.7466354l8.166168 -1.9884186z" fill-rule="evenodd"/><path stroke="#ffffff" stroke-width="1.0" stroke-linejoin="round" stroke-linecap="butt" d="m442.29837 98.119354l-11.994019 -14.411827l-3.5364075 -3.9401855l-7.1643066 -6.910637l-4.942322 -4.567711l-6.495636 -5.37265l-5.148987 -4.0984726l-4.27536 -3.0298882l-4.7867737 -2.7550583l-6.418335 -2.7486534l-5.862854 -1.7143936l-4.6637573 -0.61592484l-3.7575989 0.12617874l-2.9816895 0.5277176l-2.349823 0.75217056l-3.0718384 1.5010109l-2.4432983 1.7251358l-2.048767 2.7437706l-1.6731567 3.9271011l-1.5444031 4.2658043l-0.8648987 4.0038605l-0.35873413 5.524353l0.6335449 7.0937576l1.4471436 5.373497l1.7015991 4.416153l2.6975403 4.1883698l3.0671387 3.731514l4.6663513 4.0498962l6.340088 3.5599976l7.2247314 2.82695l7.023407 1.4991608l7.951935 0.2827835l7.8523254 -0.38272858l8.958832 -1.7466354l8.166168 -1.9884186z" fill-rule="evenodd"/><defs><linearGradient id="p.4" gradientUnits="userSpaceOnUse" gradientTransform="matrix(-10.233039003536254 -0.9935716624724843 0.9935716624724843 -10.233039003536254 0.0 0.0)" spreadMethod="pad" x1="-48.44235337385361" y1="0.5122995433517213" x2="-41.20640932986857" y2="-6.723458954567601"><stop offset="0.0" stop-color="#ff6347"/><stop offset="1.0" stop-color="#d91a1a"/></linearGradient></defs><path fill="url(#p.4)" d="m446.2592 99.207985l11.992828 14.410385l3.5360718 3.9397888l7.163574 6.9099503l4.9418335 4.5672455l6.494995 5.372116l5.148468 4.098068l4.274933 3.0295868l4.786316 2.754776l6.4176636 2.7483826l5.862274 1.7142181l4.663269 0.61586l3.7572327 -0.12615967l2.9813843 -0.5276642l2.3496094 -0.75209045l3.0715332 -1.5008698l2.4430542 -1.7249603l2.048523 -2.7434998l1.6730347 -3.926712l1.5441895 -4.2653656l0.86486816 -4.0034637l0.3587036 -5.5238037l-0.6334839 -7.093048l-1.4470215 -5.3729553l-1.701416 -4.415718l-2.6972656 -4.18795l-3.0668335 -3.7311401l-4.6658936 -4.049492l-6.3394775 -3.559639l-7.2239685 -2.8266678l-7.0227356 -1.4990082l-7.9511414 -0.28276062l-7.8515015 0.38269043l-8.957947 1.74646l-8.165375 1.9882202z" fill-rule="evenodd"/><path stroke="#ffffff" stroke-width="1.0" stroke-linejoin="round" stroke-linecap="butt" d="m446.2592 99.207985l11.992828 14.410385l3.5360718 3.9397888l7.163574 6.9099503l4.9418335 4.5672455l6.494995 5.372116l5.148468 4.098068l4.274933 3.0295868l4.786316 2.754776l6.4176636 2.7483826l5.862274 1.7142181l4.663269 0.61586l3.7572327 -0.12615967l2.9813843 -0.5276642l2.3496094 -0.75209045l3.0715332 -1.5008698l2.4430542 -1.7249603l2.048523 -2.7434998l1.6730347 -3.926712l1.5441895 -4.2653656l0.86486816 -4.0034637l0.3587036 -5.5238037l-0.6334839 -7.093048l-1.4470215 -5.3729553l-1.701416 -4.415718l-2.6972656 -4.18795l-3.0668335 -3.7311401l-4.6658936 -4.049492l-6.3394775 -3.559639l-7.2239685 -2.8266678l-7.0227356 -1.4990082l-7.9511414 -0.28276062l-7.8515015 0.38269043l-8.957947 1.74646l-8.165375 1.9882202z" fill-rule="evenodd"/><defs><linearGradient id="p.5" gradientUnits="userSpaceOnUse" gradientTransform="matrix(17.885705103424527 0.0 0.0 17.885705103424527 0.0 0.0)" spreadMethod="pad" x1="11.428503571441182" y1="21.23936324210521" x2="24.075767726398738" y2="8.592420669238361"><stop offset="0.0" stop-color="#1d5f82"/><stop offset="1.0" stop-color="#78afcc"/></linearGradient></defs><path fill="url(#p.5)" d="m51.974968 116.13476c8.158337 0 12.237518 4.970581 12.237518 14.911736c0 10.296188 -4.319126 15.444275 -12.957371 15.444275l-20.457245 0l0 -30.35601zm-29.413565 -6.5386734l0 66.89566l8.236467 0l0 -24.453445c3.0133438 0.18737793 6.852558 0.38954163 11.517662 0.6065216c4.665104 0.20710754 7.9909477 0.3106537 9.977509 0.3106537c5.546776 0 10.289993 -1.5730286 14.2296715 -4.7190857c3.9508286 -3.1559143 5.926239 -8.915466 5.926239 -17.278656c0 -14.241104 -6.584717 -21.361649 -19.754131 -21.361649z" fill-rule="evenodd"/><defs><linearGradient id="p.6" gradientUnits="userSpaceOnUse" gradientTransform="matrix(17.885705103424527 0.0 0.0 17.885705103424527 0.0 0.0)" spreadMethod="pad" x1="11.428503571441182" y1="21.23936324210521" x2="24.075767726398738" y2="8.592420669238361"><stop offset="0.0" stop-color="#1d5f82"/><stop offset="1.0" stop-color="#78afcc"/></linearGradient></defs><path fill="url(#p.6)" d="m79.75488 127.95467l13.158257 37.17576c1.4397125 4.0632477 3.4262772 6.9578094 5.9597244 8.683716c2.5446014 1.7258911 5.357048 2.6184235 8.437355 2.677597l-6.9809113 21.53917l6.3615036 0l4.7376404 -8.994385l20.055466 -61.081856l-8.320175 0l-14.095741 42.353447c-3.9843063 0 -6.8302383 -2.238739 -8.537804 -6.716202l-12.237511 -35.637245z" fill-rule="evenodd"/><defs><linearGradient id="p.7" gradientUnits="userSpaceOnUse" gradientTransform="matrix(17.885705103424527 0.0 0.0 17.885705103424527 0.0 0.0)" spreadMethod="pad" x1="11.428503571441182" y1="21.23936324210521" x2="24.075767726398738" y2="8.592420669238361"><stop offset="0.0" stop-color="#1d5f82"/><stop offset="1.0" stop-color="#78afcc"/></linearGradient></defs><path fill="url(#p.7)" d="m163.0554 133.22112c3.7722626 0 6.7577057 0.44380188 8.956329 1.3314056c2.1986237 0.8777313 3.8615417 2.6628113 4.9887543 5.355194c1.1272125 2.692398 1.6908112 6.765518 1.6908112 12.219345c0 5.4538116 -0.58592224 9.546646 -1.757782 12.278503c-1.1606903 2.7219696 -2.8236084 4.526764 -4.9887543 5.4143677c-2.1539764 0.8777466 -5.117096 1.3166199 -8.8893585 1.3166199c-3.8392181 0 -6.8414 -0.4388733 -9.006546 -1.3166199c-2.1539764 -0.88760376 -3.794571 -2.692398 -4.9217834 -5.4143677c-1.1272125 -2.731842 -1.6908264 -6.8246765 -1.6908264 -12.278503c0 -5.453827 0.5636139 -9.526947 1.6908264 -12.219345c1.1272125 -2.6923828 2.767807 -4.477463 4.9217834 -5.355194c2.1651459 -0.88760376 5.167328 -1.3314056 9.006546 -1.3314056zm0 -5.9025574c-5.68071 0 -10.206299 0.6657028 -13.576782 1.9971008c-3.359314 1.3314056 -5.8983307 3.8018951 -7.61705 7.411484c-1.7075653 3.6095886 -2.5613403 8.742889 -2.5613403 15.399918c0 6.6076965 0.83703613 11.716354 2.5111084 15.325928c1.6852417 3.5997314 4.2410126 6.0998077 7.667282 7.500244c3.437439 1.3905792 7.963043 2.0858765 13.576782 2.0858765c5.691864 0 10.234207 -0.69529724 13.626999 -2.0858765c3.4039612 -1.4004364 5.959732 -3.9005127 7.667282 -7.500244c1.7187195 -3.6095734 2.5780792 -8.718231 2.5780792 -15.325928c0 -6.5978546 -0.85935974 -11.69664 -2.5780792 -15.296356c-1.70755 -3.6095886 -4.28006 -6.094879 -7.717499 -7.4558716c-3.4262848 -1.3708496 -7.951874 -2.0562744 -13.576782 -2.0562744z" fill-rule="evenodd"/><defs><linearGradient id="p.8" gradientUnits="userSpaceOnUse" gradientTransform="matrix(17.885705103424527 0.0 0.0 17.885705103424527 0.0 0.0)" spreadMethod="pad" x1="11.428503571441182" y1="21.23936324210521" x2="24.075767726398738" y2="8.592420669238361"><stop offset="0.0" stop-color="#1d5f82"/><stop offset="1.0" stop-color="#78afcc"/></linearGradient></defs><path fill="url(#p.8)" d="m228.78117 127.14104c-3.4932404 0 -6.9920654 0.59173584 -10.496475 1.7752075c-3.4932404 1.1735992 -6.6795654 2.6430817 -9.5589905 4.4084167l-1.7410431 -5.3699875l-6.378235 0l0 48.53707l8.119278 0l0 -38.078156c3.2254028 -1.6371307 6.1215515 -2.8354034 8.688477 -3.5947876c2.5780792 -0.7593994 5.5133057 -1.1390991 8.805649 -1.1390991c3.5602112 0 6.350342 0.9862366 8.370392 2.9586792c2.0312195 1.9724579 3.0468292 4.531708 3.0468292 7.677765l0 32.1756l8.119278 0l0 -32.989227c0 -4.7338867 -1.4062195 -8.644272 -4.2186737 -11.731155c-2.8124542 -3.0868835 -7.064621 -4.6303253 -12.756485 -4.6303253z" fill-rule="evenodd"/><defs><linearGradient id="p.9" gradientUnits="userSpaceOnUse" gradientTransform="matrix(17.885705103424527 0.0 0.0 17.885705103424527 0.0 0.0)" spreadMethod="pad" x1="11.428503571441182" y1="21.23936324210521" x2="24.075767726398738" y2="8.592420669238361"><stop offset="0.0" stop-color="#1d5f82"/><stop offset="1.0" stop-color="#78afcc"/></linearGradient></defs><path fill="url(#p.9)" d="m287.9376 115.95724l13.057831 34.89759l-26.333282 0l13.275452 -34.89759zm-5.256592 -6.3611526l-25.914764 66.89566l8.437378 0l7.399414 -19.08345l30.451508 0l7.6003113 19.08345l8.437347 0l-25.914734 -66.89566z" fill-rule="evenodd"/><defs><linearGradient id="p.10" gradientUnits="userSpaceOnUse" gradientTransform="matrix(17.885705103424527 0.0 0.0 17.885705103424527 0.0 0.0)" spreadMethod="pad" x1="11.428503571441182" y1="21.23936324210521" x2="24.075767726398738" y2="8.592420669238361"><stop offset="0.0" stop-color="#1d5f82"/><stop offset="1.0" stop-color="#78afcc"/></linearGradient></defs><path fill="url(#p.10)" d="m331.64868 109.3298c-1.1048889 0 -1.6573181 0.48325348 -1.6573181 1.4497528l0 7.086029c0 0.4240799 0.15625 0.7741852 0.46871948 1.0503311c0.3125 0.26628113 0.7087097 0.3994217 1.1885986 0.3994217l5.75885 0c1.0267639 0 1.5401306 -0.48325348 1.5401306 -1.4497528l0 -7.086029c0 -0.9664993 -0.5133667 -1.4497528 -1.5401306 -1.4497528zm-1.2388 18.62487l0 48.53707l8.119263 0l0 -48.53707z" fill-rule="evenodd"/><defs><linearGradient id="p.11" gradientUnits="userSpaceOnUse" gradientTransform="matrix(17.885705103424527 0.0 0.0 17.885705103424527 0.0 0.0)" spreadMethod="pad" x1="11.428503571441182" y1="21.23936324210521" x2="24.075767726398738" y2="8.592420669238361"><stop offset="0.0" stop-color="#1d5f82"/><stop offset="1.0" stop-color="#78afcc"/></linearGradient></defs><path fill="url(#p.11)" d="m381.12213 127.40732c-3.7052917 0 -7.103668 0.78897095 -10.195129 2.3669434c-3.0803223 1.5779572 -5.959717 3.787094 -8.638245 6.627426l-1.9419556 -8.447014l-6.1773376 0l0 48.53707l8.119293 0l0 -34.45378c3.0914612 -2.544464 5.954132 -4.3887024 8.588013 -5.532715c2.64505 -1.1538849 5.786743 -1.730835 9.425049 -1.730835c0.88171387 0 2.8682861 0.15286255 5.9597473 0.4586029l0 -7.3671036c-1.5736389 -0.30573273 -3.2867737 -0.45859528 -5.139435 -0.45859528z" fill-rule="evenodd"/><path stroke="#ffffff" stroke-width="1.0" stroke-linejoin="round" stroke-linecap="butt" d="m51.974968 116.13476c8.158337 0 12.237518 4.970581 12.237518 14.911736c0 10.296188 -4.319126 15.444275 -12.957371 15.444275l-20.457245 0l0 -30.35601zm-29.413565 -6.5386734l0 66.89566l8.236467 0l0 -24.453445c3.0133438 0.18737793 6.852558 0.38954163 11.517662 0.6065216c4.665104 0.20710754 7.9909477 0.3106537 9.977509 0.3106537c5.546776 0 10.289993 -1.5730286 14.2296715 -4.7190857c3.9508286 -3.1559143 5.926239 -8.915466 5.926239 -17.278656c0 -14.241104 -6.584717 -21.361649 -19.754131 -21.361649z" fill-rule="evenodd"/><path stroke="#ffffff" stroke-width="1.0" stroke-linejoin="round" stroke-linecap="butt" d="m79.75488 127.95467l13.158257 37.17576c1.4397125 4.0632477 3.4262772 6.9578094 5.9597244 8.683716c2.5446014 1.7258911 5.357048 2.6184235 8.437355 2.677597l-6.9809113 21.53917l6.3615036 0l4.7376404 -8.994385l20.055466 -61.081856l-8.320175 0l-14.095741 42.353447c-3.9843063 0 -6.8302383 -2.238739 -8.537804 -6.716202l-12.237511 -35.637245z" fill-rule="evenodd"/><path stroke="#ffffff" stroke-width="1.0" stroke-linejoin="round" stroke-linecap="butt" d="m163.0554 133.22112c3.7722626 0 6.7577057 0.44380188 8.956329 1.3314056c2.1986237 0.8777313 3.8615417 2.6628113 4.9887543 5.355194c1.1272125 2.692398 1.6908112 6.765518 1.6908112 12.219345c0 5.4538116 -0.58592224 9.546646 -1.757782 12.278503c-1.1606903 2.7219696 -2.8236084 4.526764 -4.9887543 5.4143677c-2.1539764 0.8777466 -5.117096 1.3166199 -8.8893585 1.3166199c-3.8392181 0 -6.8414 -0.4388733 -9.006546 -1.3166199c-2.1539764 -0.88760376 -3.794571 -2.692398 -4.9217834 -5.4143677c-1.1272125 -2.731842 -1.6908264 -6.8246765 -1.6908264 -12.278503c0 -5.453827 0.5636139 -9.526947 1.6908264 -12.219345c1.1272125 -2.6923828 2.767807 -4.477463 4.9217834 -5.355194c2.1651459 -0.88760376 5.167328 -1.3314056 9.006546 -1.3314056zm0 -5.9025574c-5.68071 0 -10.206299 0.6657028 -13.576782 1.9971008c-3.359314 1.3314056 -5.8983307 3.8018951 -7.61705 7.411484c-1.7075653 3.6095886 -2.5613403 8.742889 -2.5613403 15.399918c0 6.6076965 0.83703613 11.716354 2.5111084 15.325928c1.6852417 3.5997314 4.2410126 6.0998077 7.667282 7.500244c3.437439 1.3905792 7.963043 2.0858765 13.576782 2.0858765c5.691864 0 10.234207 -0.69529724 13.626999 -2.0858765c3.4039612 -1.4004364 5.959732 -3.9005127 7.667282 -7.500244c1.7187195 -3.6095734 2.5780792 -8.718231 2.5780792 -15.325928c0 -6.5978546 -0.85935974 -11.69664 -2.5780792 -15.296356c-1.70755 -3.6095886 -4.28006 -6.094879 -7.717499 -7.4558716c-3.4262848 -1.3708496 -7.951874 -2.0562744 -13.576782 -2.0562744z" fill-rule="evenodd"/><path stroke="#ffffff" stroke-width="1.0" stroke-linejoin="round" stroke-linecap="butt" d="m228.78117 127.14104c-3.4932404 0 -6.9920654 0.59173584 -10.496475 1.7752075c-3.4932404 1.1735992 -6.6795654 2.6430817 -9.5589905 4.4084167l-1.7410431 -5.3699875l-6.378235 0l0 48.53707l8.119278 0l0 -38.078156c3.2254028 -1.6371307 6.1215515 -2.8354034 8.688477 -3.5947876c2.5780792 -0.7593994 5.5133057 -1.1390991 8.805649 -1.1390991c3.5602112 0 6.350342 0.9862366 8.370392 2.9586792c2.0312195 1.9724579 3.0468292 4.531708 3.0468292 7.677765l0 32.1756l8.119278 0l0 -32.989227c0 -4.7338867 -1.4062195 -8.644272 -4.2186737 -11.731155c-2.8124542 -3.0868835 -7.064621 -4.6303253 -12.756485 -4.6303253z" fill-rule="evenodd"/><path stroke="#ffffff" stroke-width="1.0" stroke-linejoin="round" stroke-linecap="butt" d="m287.9376 115.95724l13.057831 34.89759l-26.333282 0l13.275452 -34.89759zm-5.256592 -6.3611526l-25.914764 66.89566l8.437378 0l7.399414 -19.08345l30.451508 0l7.6003113 19.08345l8.437347 0l-25.914734 -66.89566z" fill-rule="evenodd"/><path stroke="#ffffff" stroke-width="1.0" stroke-linejoin="round" stroke-linecap="butt" d="m331.64868 109.3298c-1.1048889 0 -1.6573181 0.48325348 -1.6573181 1.4497528l0 7.086029c0 0.4240799 0.15625 0.7741852 0.46871948 1.0503311c0.3125 0.26628113 0.7087097 0.3994217 1.1885986 0.3994217l5.75885 0c1.0267639 0 1.5401306 -0.48325348 1.5401306 -1.4497528l0 -7.086029c0 -0.9664993 -0.5133667 -1.4497528 -1.5401306 -1.4497528zm-1.2388 18.62487l0 48.53707l8.119263 0l0 -48.53707z" fill-rule="evenodd"/><path stroke="#ffffff" stroke-width="1.0" stroke-linejoin="round" stroke-linecap="butt" d="m381.12213 127.40732c-3.7052917 0 -7.103668 0.78897095 -10.195129 2.3669434c-3.0803223 1.5779572 -5.959717 3.787094 -8.638245 6.627426l-1.9419556 -8.447014l-6.1773376 0l0 48.53707l8.119293 0l0 -34.45378c3.0914612 -2.544464 5.954132 -4.3887024 8.588013 -5.532715c2.64505 -1.1538849 5.786743 -1.730835 9.425049 -1.730835c0.88171387 0 2.8682861 0.15286255 5.9597473 0.4586029l0 -7.3671036c-1.5736389 -0.30573273 -3.2867737 -0.45859528 -5.139435 -0.45859528z" fill-rule="evenodd"/></g></svg>