<?xml version="1.0" standalone="no"?>
<!DOCTYPE svg PUBLIC "-//W3C//DTD SVG 20010904//EN"
 "http://www.w3.org/TR/2001/REC-SVG-20010904/DTD/svg10.dtd">
<svg version="1.0" xmlns="http://www.w3.org/2000/svg"
 width="354.000000pt" height="354.000000pt" viewBox="0 0 354.000000 354.000000"
 preserveAspectRatio="xMidYMid meet">
<metadata>
Created by potrace 1.11, written by Peter Selinger 2001-2013
</metadata>
<g transform="translate(0.000000,354.000000) scale(0.100000,-0.100000)"
fill="#000000" stroke="none">
<path d="M2158 3529 c-260 -36 -461 -213 -561 -495 -14 -38 -28 -83 -30 -100
-3 -16 -10 -49 -14 -74 -5 -25 -8 -106 -7 -181 2 -139 30 -313 73 -460 16 -52
155 -396 165 -406 5 -6 326 266 386 328 192 196 369 408 455 545 94 149 149
316 149 449 0 89 -7 120 -46 200 -25 52 -36 65 -78 97 -31 24 -190 92 -190 82
0 -2 -12 1 -27 7 -35 14 -199 18 -275 8z"/>
<path d="M327 2790 c-92 -24 -172 -82 -207 -150 -90 -179 -106 -384 -44 -580
64 -203 199 -338 434 -432 121 -49 190 -61 360 -63 135 -1 172 2 285 26 195
40 225 50 423 134 l183 77 -18 22 c-10 11 -20 23 -23 26 -3 3 -37 43 -75 90
-38 47 -72 87 -75 90 -3 3 -29 33 -59 68 -44 53 -100 109 -253 255 -16 15 -84
72 -235 197 -54 46 -184 130 -237 155 -80 37 -186 76 -186 69 0 -4 -6 -1 -14
5 -18 16 -210 23 -259 11z"/>
<path d="M2598 2025 c-2 -1 -28 -5 -58 -8 -55 -5 -181 -29 -255 -49 -22 -5
-51 -12 -64 -15 -21 -3 -95 -32 -176 -67 -71 -32 -168 -72 -195 -81 -40 -14
-40 -16 -2 -63 20 -26 42 -52 47 -58 6 -6 28 -33 50 -60 182 -221 333 -369
570 -559 194 -156 352 -237 530 -271 147 -28 325 29 387 124 62 95 100 234
100 365 0 104 -4 133 -33 232 -71 241 -290 426 -584 491 -57 13 -307 28 -317
19z"/>
<path d="M1709 1712 c-36 -32 -79 -68 -96 -82 -17 -14 -50 -41 -73 -60 -87
-71 -311 -301 -400 -410 -25 -30 -47 -57 -50 -60 -72 -70 -220 -306 -245 -390
-4 -14 -11 -29 -15 -35 -18 -25 -44 -167 -44 -240 1 -129 54 -250 131 -298 52
-32 165 -76 227 -88 53 -10 213 -13 256 -4 14 3 35 7 48 9 113 23 239 88 317
164 41 40 95 100 95 106 0 3 14 29 31 58 87 148 127 310 123 507 -3 165 -1
148 -64 441 -7 32 -160 415 -174 437 -1 0 -31 -24 -67 -55z"/>
</g>
</svg>
